<svg width="16" height="16" viewBox="0 0 16 16" fill="none" xmlns="http://www.w3.org/2000/svg">
<path d="M10.3867 7.99999C10.3867 9.31999 9.32001 10.3867 8.00001 10.3867C6.68001 10.3867 5.61334 9.31999 5.61334 7.99999C5.61334 6.67999 6.68001 5.61333 8.00001 5.61333C9.32001 5.61333 10.3867 6.67999 10.3867 7.99999Z" stroke="#84939D" stroke-width="1.5" stroke-linecap="round" stroke-linejoin="round"/>
<path d="M7.99999 13.5133C10.3533 13.5133 12.5467 12.1267 14.0733 9.72666C14.6733 8.78666 14.6733 7.20666 14.0733 6.26666C12.5467 3.86666 10.3533 2.48 7.99999 2.48C5.64665 2.48 3.45332 3.86666 1.92665 6.26666C1.32665 7.20666 1.32665 8.78666 1.92665 9.72666C3.45332 12.1267 5.64665 13.5133 7.99999 13.5133Z" stroke="#84939D" stroke-width="1.5" stroke-linecap="round" stroke-linejoin="round"/>
</svg>
