<svg width="16" height="16" viewBox="0 0 16 16" fill="none" xmlns="http://www.w3.org/2000/svg">
<g id="vuesax/outline/key">
<g id="key">
<path id="Vector" d="M4.11997 15.1667C4.0533 15.1667 3.97997 15.16 3.91997 15.1533L2.4733 14.9533C1.77997 14.86 1.1533 14.24 1.04664 13.5333L0.846636 12.0733C0.779969 11.6067 0.979969 11 1.3133 10.66L4.23997 7.73333C3.76664 5.84 4.3133 3.84 5.70664 2.46C7.86664 0.306666 11.38 0.3 13.5466 2.46C14.5933 3.50667 15.1666 4.9 15.1666 6.38C15.1666 7.86 14.5933 9.25333 13.5466 10.3C12.1466 11.6867 10.1533 12.2333 8.2733 11.7533L5.33997 14.68C5.05997 14.9733 4.55997 15.1667 4.11997 15.1667ZM9.61997 1.84C8.4533 1.84 7.2933 2.28 6.40664 3.16667C5.20664 4.36 4.7733 6.10667 5.2733 7.73333C5.32664 7.91333 5.27997 8.1 5.14664 8.23333L2.0133 11.3667C1.89997 11.48 1.80664 11.7733 1.82664 11.9267L2.02664 13.3867C2.06664 13.64 2.33997 13.9267 2.5933 13.96L4.04664 14.16C4.20664 14.1867 4.49997 14.0933 4.6133 13.98L7.75997 10.84C7.8933 10.7067 8.08664 10.6667 8.25997 10.72C9.86664 11.2267 11.62 10.7933 12.82 9.59333C13.6733 8.74 14.1466 7.59333 14.1466 6.38C14.1466 5.16 13.6733 4.02 12.82 3.16667C11.9533 2.28667 10.7866 1.84 9.61997 1.84Z" fill="#84939D"/>
<path id="Vector_2" d="M6.12664 13.6933C5.99997 13.6933 5.8733 13.6467 5.7733 13.5467L4.23997 12.0133C4.04664 11.82 4.04664 11.5 4.23997 11.3067C4.4333 11.1133 4.7533 11.1133 4.94664 11.3067L6.47997 12.84C6.6733 13.0333 6.6733 13.3533 6.47997 13.5467C6.37997 13.6467 6.2533 13.6933 6.12664 13.6933Z" fill="#84939D"/>
<path id="Vector_3" d="M9.66663 7.83333C8.83996 7.83333 8.16663 7.16 8.16663 6.33333C8.16663 5.50666 8.83996 4.83333 9.66663 4.83333C10.4933 4.83333 11.1666 5.50666 11.1666 6.33333C11.1666 7.16 10.4933 7.83333 9.66663 7.83333ZM9.66663 5.83333C9.39329 5.83333 9.16663 6.05999 9.16663 6.33333C9.16663 6.60666 9.39329 6.83333 9.66663 6.83333C9.93996 6.83333 10.1666 6.60666 10.1666 6.33333C10.1666 6.05999 9.93996 5.83333 9.66663 5.83333Z" fill="#84939D"/>
</g>
</g>
</svg>
